<svg width="1171" height="125" viewBox="0 0 1171 125" fill="none" xmlns="http://www.w3.org/2000/svg">
<g style="mix-blend-mode:hard-light">
<path d="M80.896 87.552C77.9093 89.856 73.1733 92.1173 66.688 94.336C60.288 96.4693 53.504 97.536 46.336 97.536C32.1707 97.536 20.9067 92.928 12.544 83.712C4.18133 74.4107 0 62.72 0 48.64C0 34.6453 4.52267 23.04 13.568 13.824C22.6133 4.608 34.6453 0 49.664 0C60.672 0 70.912 2.13333 80.384 6.4L82.944 24.448L81.92 24.704C77.6533 16.8533 72.9173 11.2213 67.712 7.808C62.592 4.30933 56.4053 2.56 49.152 2.56C35.84 2.56 25.728 6.82666 18.816 15.36C11.904 23.808 8.448 34.9013 8.448 48.64C8.448 62.464 11.6907 73.6427 18.176 82.176C24.7467 90.7093 34.304 94.976 46.848 94.976C56.064 94.976 63.4027 92.7147 68.864 88.192C74.3253 83.6693 78.848 76.8427 82.432 67.712L83.456 67.968L80.896 87.552Z" fill="black"/>
<path d="M97.161 95.616V95.36C99.209 92.544 100.574 90.1547 101.257 88.192C101.94 86.144 102.281 83.328 102.281 79.744V17.792C102.281 14.208 101.94 11.4347 101.257 9.472C100.574 7.424 99.209 4.992 97.161 2.176V1.92H130.057C139.017 1.92 145.63 3.88266 149.897 7.808C154.164 11.648 156.297 17.024 156.297 23.936C156.297 30.336 154.804 35.9253 151.817 40.704C148.916 45.4827 144.521 48.6827 138.633 50.304L154.377 79.872C156.681 84.3947 158.857 87.808 160.905 90.112C162.953 92.416 165.428 94.1653 168.329 95.36V95.616H154.889L131.465 51.456H109.193V79.744C109.193 83.328 109.534 86.144 110.217 88.192C110.9 90.1547 112.265 92.544 114.313 95.36V95.616H97.161ZM128.777 4.48H121.353C116.404 4.48 112.35 4.52267 109.193 4.608V48.896H128.905C135.817 48.896 140.894 46.592 144.137 41.984C147.38 37.2907 149.001 31.3173 149.001 24.064C149.001 17.7493 147.465 12.928 144.393 9.6C141.406 6.18667 136.201 4.48 128.777 4.48Z" fill="black"/>
<path d="M236.83 95.616H176.286V95.36C179.614 90.3253 181.278 85.504 181.278 80.896V16.64C181.278 12.032 179.614 7.21067 176.286 2.176V1.92H230.43L235.422 20.48L234.398 20.864C228.851 12.928 225.097 8.14933 223.134 6.528C221.854 5.504 220.745 4.94934 219.806 4.864L188.318 4.096V47.232H208.926C209.95 47.232 210.931 46.72 211.87 45.696C212.894 44.672 214.089 42.9653 215.454 40.576C216.905 38.1013 217.758 36.6933 218.014 36.352H219.038V60.032H218.014C217.673 59.52 217.161 58.7093 216.478 57.6C215.795 56.4907 215.198 55.5947 214.686 54.912C214.174 54.144 213.577 53.3333 212.894 52.48C212.211 51.5413 211.529 50.8587 210.846 50.432C210.163 50.0053 209.523 49.792 208.926 49.792H188.318V93.44L220.702 92.544C224.457 92.3733 227.87 90.8373 230.942 87.936C234.014 85.0347 237.555 80.5547 241.566 74.496L242.59 74.88L236.83 95.616Z" fill="black"/>
<path d="M250.747 95.616V95.36C253.478 92.2027 255.27 89.5147 256.123 87.296C257.062 84.992 257.531 81.792 257.531 77.696V14.464C257.275 11.648 256.592 9.42933 255.483 7.808C254.459 6.10133 252.539 4.224 249.723 2.176V1.92H263.803L300.155 83.2L336.763 1.92H349.691V2.176C346.534 4.48 344.443 6.61334 343.419 8.576C342.395 10.5387 341.883 13.6533 341.883 17.92V79.36C341.883 83.1147 342.182 86.016 342.779 88.064C343.462 90.112 344.87 92.544 347.003 95.36V95.616H329.979V95.36C332.027 92.544 333.392 90.0693 334.075 87.936C334.843 85.8027 335.227 82.944 335.227 79.36V11.904L298.747 92.8H296.827L260.091 11.52L260.475 77.696C260.475 81.792 261.072 84.992 262.267 87.296C263.462 89.6 265.936 92.288 269.691 95.36V95.616H250.747Z" fill="black"/>
<path d="M391.774 9.344L374.494 57.728H408.926L391.774 9.344ZM368.606 95.616H354.27V95.36C355.891 93.9093 357.171 92.4587 358.11 91.008C359.049 89.5573 359.774 88.2347 360.286 87.04C360.798 85.8453 361.694 83.5413 362.974 80.128L391.902 0.767998H395.358L424.67 81.28C426.377 86.0587 427.657 89.216 428.51 90.752C429.449 92.288 430.942 93.824 432.99 95.36V95.616H416.99V95.36C419.379 92.2027 419.465 87.424 417.246 81.024L409.822 60.288H373.47L366.174 80.768C363.87 87.0827 364.681 91.9467 368.606 95.36V95.616Z" fill="black"/>
<path d="M513.19 117.376C514.982 117.376 516.987 116.949 519.206 116.096C521.425 115.328 523.857 113.749 526.502 111.36C529.233 108.971 531.281 105.984 532.646 102.4L535.846 94.08L518.182 48.128C515.707 41.3867 513.19 37.0347 510.63 35.072V34.816H525.606V35.072C522.875 37.5467 522.662 41.984 524.966 48.384L539.046 85.76L552.87 49.408C555.601 42.1547 555.089 37.376 551.334 35.072V34.816H564.006V35.072C562.043 36.5227 560.593 38.0587 559.654 39.68C558.715 41.216 557.435 44.1173 555.814 48.384L533.67 105.984C531.281 112.128 528.465 116.608 525.222 119.424C521.979 122.24 518.054 123.904 513.446 124.416L513.19 117.376Z" fill="black"/>
<path d="M647.036 95.36C649.084 92.544 650.449 90.1547 651.132 88.192C651.815 86.144 652.156 83.328 652.156 79.744V17.792C652.156 14.208 651.815 11.4347 651.132 9.472C650.449 7.424 649.084 4.992 647.036 2.176V1.92H678.14C688.807 1.92 696.401 4.26666 700.924 8.96C705.532 13.6533 707.836 19.7547 707.836 27.264C707.836 35.968 705.063 42.9227 699.516 48.128C694.055 53.3333 686.332 55.936 676.348 55.936H659.068V79.744C659.068 83.328 659.409 86.144 660.092 88.192C660.775 90.1547 662.14 92.544 664.188 95.36V95.616H647.036V95.36ZM676.348 4.48C670.716 4.48 664.956 4.608 659.068 4.864V53.376H676.22C684.497 53.376 690.641 51.072 694.652 46.464C698.663 41.7707 700.668 35.3707 700.668 27.264C700.668 22.7413 700.028 18.944 698.748 15.872C697.468 12.7147 695.633 10.368 693.244 8.832C690.855 7.21067 688.337 6.10133 685.692 5.504C683.047 4.82133 679.932 4.48 676.348 4.48Z" fill="black"/>
<path d="M796.878 83.584C787.918 92.8853 776.782 97.536 763.47 97.536C750.158 97.536 739.022 92.8853 730.062 83.584C721.187 74.2827 716.75 62.72 716.75 48.896C716.75 35.072 721.187 23.4667 730.062 14.08C739.022 4.69333 750.158 0 763.47 0C776.782 0 787.918 4.69333 796.878 14.08C805.838 23.4667 810.318 35.072 810.318 48.896C810.318 62.72 805.838 74.2827 796.878 83.584ZM735.566 82.048C742.563 90.6667 751.865 94.976 763.47 94.976C775.075 94.976 784.377 90.6667 791.374 82.048C798.371 73.4293 801.87 62.3787 801.87 48.896C801.87 35.4987 798.371 24.448 791.374 15.744C784.377 6.95467 775.075 2.56 763.47 2.56C751.865 2.56 742.563 6.912 735.566 15.616C728.654 24.32 725.198 35.4133 725.198 48.896C725.198 62.2933 728.654 73.344 735.566 82.048Z" fill="black"/>
<path d="M820.372 95.616V95.36C823.103 92.2027 824.895 89.5147 825.748 87.296C826.687 84.992 827.156 81.792 827.156 77.696V14.464C826.9 11.648 826.217 9.42933 825.108 7.808C824.084 6.10133 822.164 4.224 819.348 2.176V1.92H833.428L869.78 83.2L906.388 1.92H919.316V2.176C916.159 4.48 914.068 6.61334 913.044 8.576C912.02 10.5387 911.508 13.6533 911.508 17.92V79.36C911.508 83.1147 911.807 86.016 912.404 88.064C913.087 90.112 914.495 92.544 916.628 95.36V95.616H899.604V95.36C901.652 92.544 903.017 90.0693 903.7 87.936C904.468 85.8027 904.852 82.944 904.852 79.36V11.904L868.372 92.8H866.452L829.716 11.52L830.1 77.696C830.1 81.792 830.697 84.992 831.892 87.296C833.087 89.6 835.561 92.288 839.316 95.36V95.616H820.372Z" fill="black"/>
<path d="M961.399 9.344L944.119 57.728H978.551L961.399 9.344ZM938.231 95.616H923.895V95.36C925.516 93.9093 926.796 92.4587 927.735 91.008C928.674 89.5573 929.399 88.2347 929.911 87.04C930.423 85.8453 931.319 83.5413 932.599 80.128L961.527 0.767998H964.983L994.295 81.28C996.002 86.0587 997.282 89.216 998.135 90.752C999.074 92.288 1000.57 93.824 1002.61 95.36V95.616H986.615V95.36C989.004 92.2027 989.09 87.424 986.871 81.024L979.447 60.288H943.095L935.799 80.768C933.495 87.0827 934.306 91.9467 938.231 95.36V95.616Z" fill="black"/>
<path d="M1009.91 95.36C1011.96 92.032 1013.32 89.216 1014.01 86.912C1014.69 84.5227 1015.03 81.1947 1015.03 76.928V20.608C1015.03 16.3413 1014.69 13.056 1014.01 10.752C1013.32 8.36267 1011.96 5.504 1009.91 2.176V1.92C1015.54 1.92 1021.47 1.83467 1027.7 1.664C1034.02 1.49333 1040.08 1.408 1045.88 1.408C1059.7 1.408 1070.5 5.504 1078.26 13.696C1086.03 21.8027 1089.91 33.3653 1089.91 48.384C1089.91 63.6587 1085.9 75.3493 1077.88 83.456C1069.86 91.5627 1058.34 95.616 1043.32 95.616H1009.91V95.36ZM1021.94 3.84V93.184L1042.04 93.056C1055.86 93.056 1065.89 89.5147 1072.12 82.432C1078.35 75.264 1081.46 64.512 1081.46 50.176C1081.46 34.4747 1078.39 22.8693 1072.25 15.36C1066.19 7.85067 1056.97 4.05333 1044.6 3.968L1021.94 3.84Z" fill="black"/>
<path d="M1129.27 9.344L1111.99 57.728H1146.43L1129.27 9.344ZM1106.11 95.616H1091.77V95.36C1093.39 93.9093 1094.67 92.4587 1095.61 91.008C1096.55 89.5573 1097.27 88.2347 1097.79 87.04C1098.3 85.8453 1099.19 83.5413 1100.47 80.128L1129.4 0.767998H1132.86L1162.17 81.28C1163.88 86.0587 1165.16 89.216 1166.01 90.752C1166.95 92.288 1168.44 93.824 1170.49 95.36V95.616H1154.49V95.36C1156.88 92.2027 1156.96 87.424 1154.75 81.024L1147.32 60.288H1110.97L1103.67 80.768C1101.37 87.0827 1102.18 91.9467 1106.11 95.36V95.616Z" fill="black"/>
</g>
</svg>
